/* XPM */
static char *lava2[] = {
/* columns rows colors chars-per-pixel */
"56 100 249 2 ",
"   c #1F131D",
".  c #25141C",
"X  c #2B161B",
"o  c #261A1E",
"O  c #2C1B1E",
"+  c #2D1617",
"@  c #33151C",
"#  c #3C151B",
"$  c #331B1D",
"%  c #3C1A1D",
"&  c #3B1316",
"*  c #3F0D12",
"=  c #241622",
"-  c #261A23",
";  c #2C1D23",
":  c #2C1D29",
">  c #2C1522",
",  c #331C23",
"<  c #3B1D22",
"1  c #321E2A",
"2  c #381723",
"3  c #2D2225",
"4  c #2E222A",
"5  c #272024",
"6  c #332326",
"7  c #3B2325",
"8  c #34252B",
"9  c #3A262B",
"0  c #36292C",
"q  c #3B2B2D",
"w  c #352631",
"e  c #362A31",
"r  c #3C2C32",
"t  c #3C2B35",
"y  c #3E3133",
"u  c #3F333B",
"i  c #2F2231",
"p  c #470F14",
"a  c #5B0F13",
"s  c #4C1215",
"d  c #43151B",
"f  c #4C151A",
"g  c #441A1C",
"h  c #4A1B1C",
"j  c #441615",
"k  c #531315",
"l  c #5B1414",
"z  c #5C1B15",
"x  c #55151A",
"c  c #5B151A",
"v  c #541C1B",
"b  c #5B1C1C",
"n  c #521B17",
"m  c #5A110E",
"M  c #68160E",
"N  c #75120F",
"B  c #7A130E",
"V  c #670E12",
"C  c #641314",
"Z  c #6B1313",
"A  c #641A15",
"S  c #641C1A",
"D  c #6B1C1A",
"F  c #6A1916",
"G  c #741412",
"H  c #751B15",
"J  c #7A1B14",
"K  c #7B1D1A",
"L  c #771916",
"P  c #680F0F",
"I  c #49211E",
"U  c #5C221C",
"Y  c #57251C",
"T  c #64241C",
"R  c #6B241C",
"E  c #6B2B1C",
"W  c #692717",
"Q  c #7C2315",
"!  c #73221B",
"~  c #7D231A",
"^  c #742B1C",
"/  c #7C2B1B",
"(  c #752816",
")  c #79361A",
"_  c #66361E",
"`  c #431C22",
"'  c #4C1D22",
"]  c #461D28",
"[  c #561D23",
"{  c #731E21",
"}  c #651D22",
"|  c #442225",
" . c #4C2324",
".. c #43242A",
"X. c #4C2529",
"o. c #432B2D",
"O. c #4C2B2D",
"+. c #4D2A23",
"@. c #542324",
"#. c #5B2223",
"$. c #5C2B26",
"%. c #54252A",
"&. c #532B2C",
"*. c #5D2B2C",
"=. c #592629",
"-. c #45302D",
";. c #58322B",
":. c #422E33",
">. c #4B2D32",
",. c #472A34",
"<. c #5C2F31",
"1. c #542A32",
"2. c #433235",
"3. c #4A3436",
"4. c #443539",
"5. c #4A363A",
"6. c #46393C",
"7. c #4B3A3C",
"8. c #4A3837",
"9. c #523334",
"0. c #5C3333",
"q. c #53353A",
"w. c #533B3D",
"e. c #5B3A3B",
"r. c #5A3836",
"t. c #632423",
"y. c #6C2422",
"u. c #632A24",
"i. c #6B2A24",
"p. c #632B2B",
"a. c #6A2C2C",
"s. c #652629",
"d. c #732522",
"f. c #7B2C22",
"g. c #772926",
"h. c #683329",
"j. c #7B3222",
"k. c #763628",
"l. c #643333",
"z. c #6B3B3B",
"x. c #663837",
"c. c #753B35",
"v. c #622E32",
"b. c #59413E",
"n. c #65413B",
"m. c #7B4438",
"M. c #73422A",
"N. c #4D3D42",
"B. c #473841",
"V. c #523D42",
"C. c #5B3E42",
"Z. c #533F4A",
"A. c #6A3E42",
"S. c #4E4144",
"D. c #4F4349",
"F. c #534245",
"G. c #5A4345",
"H. c #54454A",
"J. c #5A464A",
"K. c #55494C",
"L. c #5A4A4C",
"P. c #594847",
"I. c #5B4D52",
"U. c #594B53",
"Y. c #5D5154",
"T. c #5D5358",
"R. c #5B504F",
"E. c #624B4D",
"W. c #654547",
"Q. c #764646",
"!. c #614D52",
"~. c #694F54",
"^. c #635254",
"/. c #635559",
"(. c #65595B",
"). c #6A5A5D",
"_. c #695458",
"`. c #73534D",
"'. c #695B61",
"]. c #746366",
"[. c #88180D",
"{. c #971B0D",
"}. c #841D12",
"|. c #8A1C12",
" X c #851815",
".X c #941E11",
"XX c #A41D09",
"oX c #98250D",
"OX c #842415",
"+X c #8C2414",
"@X c #82251A",
"#X c #8B241A",
"$X c #832B1B",
"%X c #8C2C1B",
"&X c #872C16",
"*X c #932614",
"=X c #932B13",
"-X c #9B2B14",
";X c #992414",
":X c #883518",
">X c #9B3313",
",X c #9B341A",
"<X c #963918",
"1X c #8C220E",
"2X c #A4220C",
"3X c #AA270C",
"4X c #B72A0A",
"5X c #AA340D",
"6X c #B8380D",
"7X c #A52A13",
"8X c #A43414",
"9X c #AC3C14",
"0X c #A63817",
"qX c #B73B13",
"wX c #872D24",
"eX c #843625",
"rX c #943A26",
"tX c #811D21",
"yX c #C6360B",
"uX c #CB360C",
"iX c #89441B",
"pX c #9B4418",
"aX c #98541E",
"sX c #B6470F",
"dX c #A84518",
"fX c #B74815",
"gX c #BA5616",
"hX c #A84B13",
"jX c #B5641A",
"kX c #8A4227",
"lX c #984925",
"zX c #874736",
"xX c #90512D",
"cX c #A64926",
"vX c #AC5A26",
"bX c #C9470D",
"nX c #D5480B",
"mX c #CB520D",
"MX c #D8570D",
"NX c #C54910",
"BX c #C85913",
"VX c #D25612",
"CX c #E35709",
"ZX c #CA6616",
"AX c #D56612",
"SX c #DA6F14",
"DX c #E77810",
"FX c #895341",
"GX c #E68A19",
/* pixels */
"8 q q q 8 q q 9 ; q 8 t q y q 0 8 t F.0.g q q 8 4.N.2.2.2.2.+.z q 2.- 9 V.F.t 7.F.).K.G.J ; 4 4 8 w 8 8 8 8 9 q ",
"q q 0 9 9 q q < h t 8 4.y t t 0 t 4.^.M.$Xq 2.q y 7.8.3.o.e.L bXb 2.; : 4.N.t F.F.).(.&.7X< 4 4 4 t t t t q q 8 ",
"9 9 8 8 q q t &.J 4 t 4.0 0 0 2.2.F./.:X9X:.7.:.q 2.2.9.=.K {.bX;X| q 8 q 2.:.F.2.1 ] :XMX! 4 4 4 8 t q t 9 9 8 ",
"o.1 8 q q q 7.i.mXY 1 t t 2.4.N.7.K.Y.;X4X#.3.2.t y o.@.G XX+XaXjXgXJ C C A ( OX>XdX>XJ C f.h ; ; 9 9 q q q 9 8 ",
":.; 8 q q q F.%XZXiX# : 2.7.N.K.N.q.i.3X;XF 3.2.q q O.L {.( :.7.E.`.vXnXyXbX.XK W h.*.7 7.e.d.v ; = ; q :.:.; 8 ",
"t 8 q q t 8.q.T 9 9 | U ` 2.3.u.<XmXuX.Xy.8XW 7 2.o.[ S @ #.9./.).].zXyX|.{.i.{ [ 2.q y t G.q.F L # = : t t 8 q ",
"8 4 q :.2.2.+.Y o.2.5.9.mX6X3X4XbXnX4X}.d.0Xh q o.9 S @ 1 8 < 4.N.!.x.+X;X5Xy.s.` q q 4.q q K.P.y.L x @ > w 4 q ",
"> ; 8 q :.2.>X9Xi.k.U d.3X{.B  Xc ' X.0.c.#XOX| <.Z }.f ; 8 8 8 F.2.G.U AXnX2XJ ` 8 9 2.2.q 2.K.r...&.dXW X ; 8 ",
"+XU g h b }.4X4XuX3X}.Z x c y.{ < 8 t F.E.i.qXoXC f [ K @ ; 1 :.7.F.F.3.<XyX[.F @.| | 7 t 2.o.>.k.fX9XXX3X*XU ' ",
"a Z C # x x b bX[.x f d 1 o.A.O.0 2.2.F.9.C.K p ; t 2.%.g u t 8 0 2.7.^.h.6XG %.q 2.7.x.I >.S A F ~ N s x a Z Z ",
"1 1 X 8 8 9 9 f.f $ 1 ; 4 q.q.8.t 5.:.V.v g.Z ; t t t 0 < e e 9 ; 8 q 7.E.=XS >.9 q 7.F.dX6X|.` 8 9.[ 1 9 1 1 > ",
"4 4 ; t 2.7.t a.$ : 8 8 t F.K.S.t 4.:.x.s.K j w 2.t t e e 8 t 8 8 :.q q V.OX@.q 4 :.2.7.aXhX| q q t q.- 4 4 4 ; ",
"8 4.q 4 t 2.q *.1 t t t t q F.7.2.3.W.$X X[.< y t t t 0 7.4.t 0 8 4.2.9 q.pX| q 9 y 2.F.pXn 0 9 0 8.V.- : 8 4.q ",
"t t 8 8 0 0 3.#.9 q q 8 8 8 4.^.4.V.r.7XyX}...9 8 t e 8.K.S.4.t ; ; K.o.p.$X[ q 8 8 K.E.>X7 8 8 8.K.%.: 8 q t 0 ",
"9 8 4 9 q o.<XW 4 2.4.0 0 0 2.K.P.3.q.hXgXv o.q 0 4 0 F.I.K.S.4.q ; X.' ^.x.$XX.V.2.n.cX7X$ 8 q K.x.>Xx :.q 8 4 ",
"T 4 9 q y p.T E 8 7.y 8 8 8 7.F.F.F.9.sXs t 2.y 0 ; 0 F.I.I.F.N.2.9 7 < ^.j.` o.C.k.BXnX:X9 9 2.E.>X! [ v y.9 8 ",
"$.E 9 t F.$X{.E q 7.9 q 9 t K.7.7.K.c.*X9 2.2.y e 4 ; S.T.Y.K.F.y 0 9 | u.J ; 8 I.`.ZXDXY t 4.4.W.! >.8.y $.( < ",
"!.$XY 7 i.yXyXW 4.q q q 8 F.F.8.F.F.eXx 2.2.2.2.y 4 - 8.K.U.K.S.y 0 7.V.e.c ; 8 t I.`.gXs.>.t 5.wXs 9 0 q K.$X#.",
"(.<.7.h.+X4XyX9X# t q q 0 ^.K.F.V.h.Q < 2.2.2.2.y 8 4 w 7.K.F.K.I.4.F.K.q.f ; 9 q 7.I.rX1.:.N.f.=X8 t 4.t /.0.7.",
"'.G.4.S.3.p.4XuXz t q q 2.^.!.7.) ZXZ | 2.2.2.2.t 8 4 : N.U.K.K.'.F.K.I.b.[ 8 9 9 4./.,X[ G.A.y.~ 5.2.4.t ).E.4.",
"/.^.4.7.7.F.x.>X<X9 5.2.q N.q.iXnX3X;X[ q 2.2.2.t ; 4 e K.T.F.F.K.F.G.I.x.c 4 9 0 t C.%X@.z.~ ' +X9 2.0 2.Y./.5.",
"I.I.N.8.7.7.F.3.=X<X:X$XJ ( jXGXmX6X<XQ u.o.y 2.2.= 4 t F.Y.F.S.S.F.F.Y.i.x O ; 0 O.d.8 8 3.7 &.dX< 4.8 7.K.I.S.",
"F.F.F.N.7.4.F.8.*.bX6XnX4XgXT j @ < 9 3./ =X@.4.8 8 8 8 4.K.D.S.S.F.I._.0XM O 4 4 O.b - < 7 0 4.x.| N.8 2.F.F.F.",
"7.2.N.N.F.8.S.7.&.J v bXdXj q 8 t q.F.^.O./ 9X#.4 8 8 8 t S.N.7.D.V.V.0.! | 0 8 0 5.| 8 ) E q 2.F.;.F.q q 7.2.N.",
"q 2.N.7.F.F.7.7.r.F W dXX = 9 q 8 8 7.P.K.V.j.sXh 8 q t 0 4.8.4.I.q.T L 9 0 0 8 0 3.:.y q / :XM.r.k.V.4.8 q 2.7.",
"q 2.F.7.F.F.F.K.^.rXbXW   - ; 1 ; 4 q 8.V.K.!.eXk.Y 9 q 0 q q | eXm.+X9 0 0 q q q 2.2.q 8 8 E gXo.0.2.N.8 0 2.V.",
"t 5.F.7.3.F.K.^.(.eX:Xg ; 4 ; ; - : 8 q 4.F.Y.G.&.0.S m z s x F Q $X| t 0 y y 2.q 7.2.t t t 4.+.N.q.V.N.w q 3.F.",
"q 7.F.7.3.q.E.P.K.| 4 8.:.1 ; - - ; < < 9 2.S.I.eXH +Xs T j + X 9 O.` :.2.8.7.q 0 S.7.:.8 t t :.F.0.V.N.4 q 7.F.",
"2.q.S.7.5.F./.F.K.9 4 4.K.H f # O 1 $ # 1 4 2.t ! v | g 9 ; o O 4 7.& 2.2.G.9 t y N.N.4.t u t 7.F.p.5.4.4 2.q.V.",
"2.^.2.7.7.G.'.F.K.@.9 F.^.*X{.H l f d s p @ 8 ' | q 7 o O 9 ; O 4 7.g 8 5.5.q y 8.N.N.F.4.N.4.!.G.y.>.q - 2.^.4.",
":.q.q q.F.).].F.W.h q K.K.wX.Xx W ,X.XG C s d s 9 q 4 O 4 8 O 4 0 7.F 1 q.7.y 2.N.B.B.F.I.N.'.~.s.8X< 8 ; q q.q ",
":.` 4.F.K.).K.K.y.$ 2.F.F.k.f ; 4 O fX{.C c # X 8 t q ; 4 4 9 9 9 q.' 8 r.d.` ; t 4.N.N.7.W.k.OX*X>XH z # :.| 2.",
"d.g q t 4.^.P.kXT 7 2.F.F.z.< - q 7.fX3XG f # $ 4 9 ; 9 4 ; ; 9 9 e.E [ %...eXpXE X.N.N.5.y.wXq.3.o.3.<.k.f.g 9 ",
"C.h.W / M F <XAX# $ 2.2.S.E.%Xf >.o.E =X3X[.N C v # ; ; o . ; 4 4.zXf >.V.).`.Q T ) k.S #.fX[ 7.2.2.t V.N.C.h.W ",
"7.F.7.gXhX>XsXT - . 2.5.E.z.A 2 ; 8 9 9 dX=Xm + h H & X . O O q m.=X..V.7.G.x.1 i u c.,X0.,XO.7.7.5.t :.7.7.F.S.",
"F.Y.F.x.< 9 9 0 ; q 5.3.W.F 8 ; 8 4 ; # OXg O.| Q 8XG x v h | ( 9Xv.t 7.F.!.i.1 4 t !.<Xx.Q 8 N.F.7.2.2.9 7.Y.F.",
"K./.K.F.1 4 ; q 5.:.-.F.y.g 4 8 8 ; = # :X@.f.A 9 7 z j s |.=X<X;X#.9 3.p.%.' 1 e 0 !.<XrX>X1 8 V.7.4.4.8 F./.K.",
"K.^.I.K.v @ ; q 7.2.2.q.S 1 0 9 : - ; h h Q sX# F.8 t ; j & . q zX#Xy.eX,X< ] : 4 N.q...O.W h 8 t N.N.4.8 K./.R.",
"F.(.(.K.( 4X+Xg 1 ` @.Z x ; 8 4 ; ; 9 g 9 4 E ' S.4 8 . - 5 8 :.).qX2XC ! *X` = 4 ).>.4 8 2.@.o.y t N.F.2.F.(.(.",
"8 /./.F.d.G N Z z f y.[.s $ 4 4 ; 9 < . ; g ) pX@ ; O   8 0 q 7.~.OXs . 1 ! : - 8 ~.K # ; 9 q.%.4.5.3.V.q 8 Y.(.",
"8.2.K.F.v | g $ O O 3.;XV < 4 4 4 9 # $ h L ! >XA x @ o 4 0 t N.u.z X . ` OX8 - w Q.2Xc < ; q.L >.7.7.7.8.7.t K.",
"F.F.7.q.1 q 7 1 ; 9 3.%XN # ; ; O h j # 9 < w 1 ) =X( - 4 0 :.j..X* . < lX5X' ; 9.dX2XB Z f F y.j.k.q.N.N.F.K.2.",
"F.K.5.9 t 0 9 9 q :.:.$.5XQ l S W # q 8 8 q 8 4 ; 1 ( Y h T +X8X*Xg v b T |.J $XZXyXC %.s.}.l 1 2.gX$.7.7.F.K.q.",
"F.E.9 0 0 8 8 8 7.3.2.q.gXz 0XdX9 q q q 0 2.9 9 4 4 < *XS d 1 o.W 9 o.q 2.V.V.9.:X6Xf q q ( x - t vXNX@.N.F.E.9 ",
"N.0.8 8 0 8 0 4 N.t 7.F.<X<.kXI q q q y y q 0 0 9 9 ; x 2 : 4 0 7.2.q 2.4.N.F.4.:.wX@.4 2.h.f - o.fXMXNXkX7.x.8 ",
"k.gXh 8 2.0 8 4 7.t F.h.BXwXcXh q y t y t 0 q q 0 9 < s 1 8 8 t N.N.4.4.4.V.V.N.4.W.W 4 S.c.Q dXqX-X}.F E k.gXY ",
"4.;.) 4 2.0 8 4 2.F.E.jX_ h.AXZ o.q y 2.9 q 2.q q 2.9 s t 0 8 e N.N.N.4.t B.N.2.2.F.i.; F.cXnXXXZ ` 9 t 0 4.;.iX",
"t 4.3.u.9 0 0 q V.W.eXaX+.h.DX.X#.q y >.q 0 q q y 2.7 *X< q 8 8 2.7.2.2.q 4.2.q 7.F.~.+.r.bXXXC d ; t t t t 4.3.",
"t 2.2.u.pX| :.p.~ U 7 q 9 : :XyX[.#...>.q q y t t o.%.6X) 8 t 8 2.2.0 t 9 q 2.4.F.P.F.k.lXuX[.f 1 4 8 q t t y 4.",
"t 9 t t ;.gXsXgX..8 9 q 0 q q ! 4XB s.<.1.X.| | p.J 5XGXSX# 2.q 0 8 8 8 q o.5.F.I.K.7.P.0XXXZ ` 4 4 8 9 t t q q ",
"9 8 8 q 7.+.pX_ q q 0 q q 8 0 t :XsX7X2X9XdXNXpX:X/ kXpXgXpX9 2.t 4 9 q 3.2.2.7.!.F.4.E.xX[.f 8 8 8 q t :.8 9 8 ",
"8 8 0 q q 9 1 # 8 q q q 8 8 8 7 :.) yX{.3XVX=X< 2.q q q p.ZXh q 4.8 ; t 2.4.2.:.q.F.3.P.rXB # - 8 t q 4.t 8 8 0 ",
"8 q 0 t 8 8 ; $ 4 q t y q 7 9 9 7 2.u.8XsXiX9 2.q q 4.2.q.h.iX; q 8 - q y 2.y q 2.F.V.^.$Xx ; - ; 0 q w 4 8 q 0 ",
"8 q 0 0 8 9 q 7 ; q 8 t t q q 0 8 t 7.W h t q q 4.7.8.2.2.3.@.& t 2.- 9 7.S.t 2.7.^.G.K.H 1 : ; 4 8 8 8 8 9 9 0 ",
"q q 8 q 9 q q 1 g t 4 4.y q y q q 2.^.n.E 9 2.8 2.F.7.2.q q.y.9X` 2.; 4 7.F.t F.F.'.^.9.OX1 8 4 4 t t t t q t 8 ",
"9 8 8 8 q q t | A 8 e 8.0 0 8 t 2.N./.iX8Xo.7.t q 2.2.8.&.y..XnX+XO.9 8 t 3.2.F.7.2.5.( bXv 4 ; 4 8 t t t 9 8 8 ",
"q 9 8 9 q q 4.p.qX# 8 y 0 t y 7.8.K.^.=X4X&.5.2.q o.o.&.F {.7XjXZX&Xb g h | ' u.d.) $X;X-X%X# : : 8 q 9 q 9 9 8 ",
"2.; 8 q t q F.$XDXhX1 8 2.7.N.F.F.F.e.;X7XA 2.3.q q o.A {.;X| :.b.xXgX6X6X6X2X.X+X,X! ` :.q.W @ - ; 8 q o.:.: 8 ",
"t 4 0 q q 2.q.$XY < h g 8 7.N.q.U <X6X3Xf.+Xp.7 :.2.@.J x #.5.^.).].FXnXXX3Xy.{ [ 4.2.q 8.W.*.~ v = = 1 :.t 4 0 ",
"w 8 q y 2.2.O.# o.o.2.0.9X>X+X3XMXCXuX|.y.qXv q :.7 F # 1 7 | V.K._.g.3X#XoXp.y.' t 8 4.8 2.E.9.$XJ d > : w 8 q ",
"; ; q q 2.2./ >XO.O.o.$.yX2X[.|.G ! F y.wX;XA q o.v K @ ; 8 8 8 F.7.P.F VXnX.XF 9 8 q 4.2.0 4.!.<.] %./ d ; ; q ",
"W X ; 1 ` W yX4XyX6X1X[.Z A } tX` 9 q F.~.d.qX*XK C C ~ ; : 8 :.F.7.P.>.fXyX{.J v | < q 2.q 2.7.c.kXrX6X6X! @ ; ",
"B |.H c F Z G bX3XC l f # | z.#.8 q 2.F.e.q.#Xa 2 8 :.=.f e w 9 q 7.V.K.j.yXN @.9 2.9.@.9 4.%.b ~ 7X[.V V N |.J ",
"< d @ : 9 7 | #Xx d < 1 4 3.P.4.t 4.2.P.| h.Z > 8 4.t q ` u t 1 ; 8 o.F.W.7XF O.0 y 8.P.>XOX|.v 9 <.x < # # # @ ",
"4 4 ; e t 4.q i.# ; 8 8 0 P.F.N.t 4.o.e.y.K x 4 4.t t e 8 w e 0 8 0 q o.P.OX#.t 4 t 2.N.aXmXb q q y 1.- 4 4 4 ; ",
"8 t 0 8 4.7.t v.; 8 t t 2.2.F.7.2.4.P.k.f.[.# y t t y 0 2.y t 0 8 7.2.q q.<X| 0 4 2.t 7.dXA q 9 q u V.; ; 8 t q ",
"0 2.8 8 8 t 2.#.9 q 0 0 8 4 7.K.2.V.x.7X2X}.:.9 8 t e 4.F.N.y t 4 8 K.q *.0X| t 9 8 F.!.<Xg 9 9 y K.9.: 9 q 2.0 ",
"9 0 4 8 t 9 j.T ; :.4.8 8 w 2.K.F.5.9.9XAXH | q 0 8 8 S.K.F.N.4.8 o 3.| W.x.#X..2.:.E.zX7X1 8 q F.W.H # :.9 0 9 ",
"| 9 4 0 t 0.eXE 8 5.2.8 0 8 4.P.F.F.9.fXM q 4.q 0 ; q F.Y.K.F.7.2.9 ` < ).c.h X.V.9.dXnX=X9 9 y !.$X<XA v @.4 9 ",
"( I 8 t N.y.J E 8 N.q 8 9 q K.N.N.K.x.8X< 2.2.2.0 4 8 S.T.T.K.F.y 8 7 < 0.OX1 q !.zXAXDXE 0 y 2.W.=X| 7.:.i.I 8 ",
"F.,Xh 8 0.qX6XE 7.t q q 8 N.K.5.F.G.k.C 2.2.2.2.y 4 - N.Y.I.K.F.y 8 2.9.v.c ; 0 4.Y.FXAX#.5.4.7.k.x 9 0 q F.,Xv ",
"(.#.7.W ;XyX4X=X9 q q q 8 ^.F.N.F.9.$X` 2.2.-.2.y 4 ; t N.U.K.S.F.t F.K.q.f ; 8 t N.^.rX=.>.t i.+X@ 9 y t ^.*.5.",
").P.7.F.O.~ uXuXs t q q t ^.^.S.;.gXM 7 2.2.2.2.y 8 4 : B.K.I.K.'.N.K.K.P.[ 4 9 8 4.Y.rXX.N.W.f.OX5.2.8.t (.W.5.",
"(.^.5.7.8.F.f.6X:X9 2.2.2.K.V.h.sX9X}.` t 2.2.2.t 4 4 8 K.U.F.K.I.F.K.K.e.[ 8 8 8 t P.0X} A.k.` f.o.4.t t /./.3.",
"Y.Y.7.8.N.7.F.;.>Xv b s s g iXGXCXbXfXQ X.2.y 2.4.- 4 y K.T.K.S.F.V.F.Y.p.x ; 4 q o.i...9 9.v #.9X7 4.8 7.I.^.7.",
"F.F.F.N.7.8.F.2.i.AXMXVX4XBXpX) z s # @.%XW o.4.0 ; 8 8 8.U.D.S.S.F.G.).wXm O 4 9 @.W ; ; q 8 4.k.| N.8 2.F.F.F.",
"V.4.F.N.V.4.S.7.&.oXG bXbXE :.8 8 2.7.K.| 8X*X3.4 8 8 8 t D.S.N.F.F.F.P.%Xv 9 4 8 3.' 1 ) | t 3.V.O.F.0 q V.4.N.",
"t 2.N.7.P.S.7.7.0.Z #.fXj . 9 q t 2.F.E.K.O.>X>X1 0 0 q 0 B.7.5.I.F.O.y.7 q 0 0 8 3.:.t | :Xu.o.b.k.F.t 8 t 2.N.",
"t 2.N.7.F.F.q.F.G.%X5X/   = 1 9 9 9 t F.S.K.P.dX/ I 0 t q 2.2.t x.z.;XI q 0 0 0 q :.2.:.q 9 %XZX+.p.4.N.9 0 2.N.",
"t 2.F.7.7.F.G.E.).lXgXx = 4 o ; ; 9 q t 7.F.^.C.9.x.v d + X g H ;XwX@.t 0 q y q q 2.:.q q q 5.i.5.q.5.V.8 0 :.F.",
"o.q.F.7.3.V.K.K.^.@.9 2.8 1 ; - - ; 1 9 8 7.F.Y.y.S +Xl $Xl j @ | #.| :.t 4.8.t 0 S.5.t 0 t 2.o.D.1.F.N.8 t q.F.",
"2.7.F.7.3.V.^.F.K.9 4 8.F.S 2 ; ; ; $ # 1 0 4.4.eXF U h | ; O O 4 3.# 4.4.F.o.t y S.N.q e u t 5.F.h.5.4.8 :.7.N.",
"2.E.7.3.8.F.).F.K...8 7.^.*XN a j # # d # O q | [ | | + $ 9 O O 4 7.d 8 2.q.t u 4.N.N.N.u 4.t G.G.u.3.t ; 2.E.7.",
"t G.q 7.F.^.].F.E.y.9 K.!.%X3XJ OXQ P a a j # l 7 q 4 o O 9 O 4 8 7.b ; C.2.t 2.N.B.N.U.I.F.I.(.r.+X..q ; q K.q ",
"3...t F.K.(.^.F.i.O 2.F.F.wXx ; 1 Y sX[.Z C f @ 9 t q O 4 9 $ 4 4 V.b 1 1.p.9 8 B.4.N.Z.N.F.Q.wX;XsXF # ; :...t ",
"y.< 4.8.V.).P.m.W < 2.V.F.z.2 - 8 :.dXXXZ f $ ; 9 0 4 4 4 ; ; 9 7 V.| X.h.U / T ` :.F.Z.7.p.%Xp.=.| &.y.! y.# 2.",
"z.T U h d *.k.ZXh 1 2.7.F.E.W < 7.9.9X6X{.C x s # 1 ; 9 o o O 4 y m.W ' :.!.`.9X<X/ &.` ..<Xy.N.2.o.2.F.q.z.E U ",
"V.F.9.BXNX6XVXiXO X 2.2.K.W.%Xd 1 9 1 < hX3XG x A l @ O o - O 9 n.,X` V.V.K.A.< 8 t k.>Xp.9XX.N.7.5.q 4.q.V.V.3.",
"7.K.S.j.g g h q = 8 3.3.E.d.< ; 9 9 ; 1 =Xl ' | W 8Xm & @ X 7 @.dXd.:.7.V.K.x.2 4 t E.,X0.Q :.N.F.7.2.:.9 7.K.S.",
"F./.F.q.1 9 8 9 :.o.2.V.i.h 4 4 9 ; - # W 9 &.S I v J C S +X=XdX;X1.9 4.e.x.c 1 w t I.dXxX>X1 q F.7.2.2.8 F./.F.",
"K./.K.K.h ; ; 2.7.2.t F.F < 8 8 4 ; = g / 1XbXI 8.0 o.; j a & ;.pXL | h.$X2 9 : w t P.#.b =X# 9 2.7.7.4.8 K.T.K.",
"Y.(./.K.d.1Xl 1 9 o.3.b x ; 9 4 ; - 1 h ; O $X| K.4 8 + . - ; 8 _.0X7X=X,X$X' - 4 /.4.8 q >.#.q t 4.N.V.t K.(./.",
"q (.(.F.f.{.{.J z x S [.s 1 4 4 ; ; < + 9 7 Y E 9 4 ;   4 0 q 7.).7XZ X < ! 1 - 8 /.y.1 4 q 9.O.4.:.4.F.2.q (.(.",
"y N.Y.F.b ' h # $ O >..Xa # 4 4 9 1 g O g Q 9XgXn # . . 8 e q F.0.F @ . 1 Q 8 - 8 W..Xf ; 4 N.[ 5.7.7.7.4.2.8.Y.",
"F.7.7.P.< q 1 $ ; 4 9.;XN # O ; ; 7 g g | < 9 g :X;XY o 4 0 y <.+Xp . 1 k.;X..; 4.lX4XB x # y.$Xd.0.V.N.N.F.7.8.",
"G.K.q.7 8 t 9 8 0 q 2.T oXl d d b h 1 9 9 9 8 4 ; # $X$ ; | / qXoXd d #.:X9XH b pXbXG b d.B l < r.fX>.N.7.G.I.V.",
"F.!.7 0 t 8 8 8 2.2.2.q.BX~ >XdXg 0 q 0 0 o.9 4 4 ; h 9XL S h $.OX9 o.7 :.1.*.k.fX6Xf q o.~ l ; t vX<X3.7.S.Y.9 ",
"F.e.9 8 8 8 e 4 N.2.2.F.dX+.xXE q q q 2.y 2.9 9 9 4 1 a 1 ; ; q 3.o.t 2.2.F.F.4.>.,X' 8 :.h.x - t cXnX>X;.F.C.8 ",
"h.dX< 8 y 0 8 4 7.t 7.r.dXi.lXh q t t y y q q q 9 9 1 x @ 4 8 t N.7.t 4.4.N.V.N.4.z.T 4 N.c.l _ pXqX6X3XdXh.cX` ",
"9.iX) 8 4.0 8 4 2.7.K.lXiXeXVXA q q y 2.q q 2.q q q ..j t 0 8 e N.N.N.4.2.N.V.4.4.F.y.; N.xXbXyX[.x ` 9 8 3.) iX"
};
