/* XPM */
static char *redWall[] = {
/* columns rows colors chars-per-pixel */
"100 89 101 2 ",
"   c #555555",
".  c #565656",
"X  c #575757",
"o  c #585858",
"O  c #595959",
"+  c #5A5A5A",
"@  c #5B5B5B",
"#  c #5C5C5C",
"$  c #5D5D5D",
"%  c #5E5E5E",
"&  c #5F5F5F",
"*  c #606060",
"=  c #616161",
"-  c #626262",
";  c #636363",
":  c #646464",
">  c #656565",
",  c #666666",
"<  c #676767",
"1  c #686868",
"2  c #696969",
"3  c #6A6A6A",
"4  c #6B6B6B",
"5  c #6C6C6C",
"6  c #6D6D6D",
"7  c #6E6E6E",
"8  c #6F6F6F",
"9  c #707070",
"0  c #717171",
"q  c #727272",
"w  c #737373",
"e  c #747474",
"r  c #757575",
"t  c #767676",
"y  c #777777",
"u  c #787878",
"i  c #797979",
"p  c #7A7A7A",
"a  c #7B7B7B",
"s  c #7C7C7C",
"d  c #7D7D7D",
"f  c #7E7E7E",
"g  c #7F7F7F",
"h  c #808080",
"j  c #818181",
"k  c #828282",
"l  c #838383",
"z  c #848484",
"x  c #858585",
"c  c #868686",
"v  c #878787",
"b  c #888888",
"n  c #898989",
"m  c #8A8A8A",
"M  c #8B8B8B",
"N  c #8C8C8C",
"B  c #8D8D8D",
"V  c #8E8E8E",
"C  c #8F8F8F",
"Z  c #909090",
"A  c #919191",
"S  c #929292",
"D  c #939393",
"F  c #949494",
"G  c #959595",
"H  c #969696",
"J  c #979797",
"K  c #989898",
"L  c #999999",
"P  c #9A9A9A",
"I  c #9B9B9B",
"U  c #9C9C9C",
"Y  c #9D9D9D",
"T  c #9E9E9E",
"R  c #9F9F9F",
"E  c #A0A0A0",
"W  c #A1A1A1",
"Q  c #A2A2A2",
"!  c #A3A3A3",
"~  c #A4A4A4",
"^  c #A5A5A5",
"/  c #A6A6A6",
"(  c #A7A7A7",
")  c #A8A8A8",
"_  c #A9A9A9",
"`  c #AAAAAA",
"'  c #ABABAB",
"]  c #ACACAC",
"[  c #ADADAD",
"{  c #AEAEAE",
"}  c #AFAFAF",
"|  c #B0B0B0",
" . c #B1B1B1",
".. c #B2B2B2",
"X. c #B3B3B3",
"o. c #B4B4B4",
"O. c #B5B5B5",
"+. c #B6B6B6",
"@. c #B7B7B7",
"#. c #B8B8B8",
"$. c #B9B9B9",
/* pixels */
"m r r r r r r r r r r r r r r r r r r r r r r r r r r r r r r r r r r r r r r r r r r r r r r r r r r r r r r r r r r r r r r r r r r r r r r r r r r r r r r r r r r r r r r r r r r r r r r r r r r r ",
"r 6 l < < < < < < < < < < < # 6 l 6 < < < < < < < < < < < < < < < < # r u < < < < < < < < < < < < < < # u u < < < < < < < < < < < < < < # u r < < < < < < < < < < < < < < # l r < < < < < < < < < < < # ",
"r l o.r u u u u u u u u u u < u o.u u u u u u u u u u u u u u u u r # R ^ r r r u u u u u u u u u u r . ^ R r u u u u u u u u u u u u 6 # } Z u u u u u u u u u u u u u 6 < o.m u u u u u u u u u u 6 # ",
"r l o.r u u u u u u u u u r < u o.u u u u u u u u u u u u u u u u r # R ^ r u r u u u u u u u u u u r . ^ R r u u u u u u u u u u u u 6 # } Z u u u u u u u u u u u u u 6 < o.m u u u u u u u u u u 6 # ",
"r l o.r u u u u r u u u u r < u o.u u r u u u u u u u u u u u u r r # R ^ r u u u u u u u u u u u u r . ^ R r u r u u u u u u u u u u 6 # } Z u u u u u u u u u r r u u 6 < o.m u u u u u u r r u u 6 # ",
"r l o.l l l l l l l l l l l < u o.m l l l l l l l l l l l l l l l u # R } l l l l l l l l l l l l l u . ^ ^ l l l l l l l l l l l l l r # } R l l l l l l l l l l l l l r < o.Z l l l l l l l l l l r # ",
"r l o.o.o.o.o.o.o.o.o.o.o.o.6 u o.o.o.o.o.o.o.o.o.o.o.o.o.o.o.o.o.} # R o.o.o.o.o.o.o.o.o.o.o.o.o.o.^ . ^ o.o.o.o.o.o.o.o.o.o.o.o.o.o.Z # } o.o.o.o.o.o.o.o.o.o.o.o.o.o.m < o.o.o.o.o.o.o.o.o.o.o.o.Z # ",
"r < 6 6 6 6 6 6 6 6 6 6 6 6 # < 6 6 6 6 6 6 6 6 6 6 6 6 6 6 6 6 < < # < 6 6 6 6 6 6 6 6 6 6 6 6 6 6 < # < 6 6 6 6 6 6 6 6 6 6 6 6 6 6 < # < 6 6 6 6 6 6 6 6 6 6 6 6 6 6 < # 6 6 6 6 6 6 6 6 6 6 6 6 < # ",
"r 6 u < < < < < < # u 6 < < < < < < < < < < < < # 6 u < < < < < < < < < < < < < < < # < u 6 < < < < < < < < < < < < < # < u 6 < < < < < < < < < < < < # u r < < < < < < < < < < < < < < # u 6 < < < # # ",
"r l o.r u u u u 6 # o.Z u u u u u u u u u u u u # m } r u u u u r r u u u u u u u u < r o.l u u u u u u u u u u u u u < u o.u u u u u u u u u u u u r . o.Z u u u u u u u u u u u u u 6 < o.Z u r u 6 # ",
"r l o.r u u r u 6 # o.m u u u u u u u u u u u r # m } r u u r r u u u u r r r r u u < r o.l r r u u u u u u r r u u u < u o.u r u u r r u u u u u u r . o.Z r r r u u u u r u u u u u 6 < o.m r r r 6 # ",
"r l o.r u u r r 6 # o.m u u u u u u u r u u u r # m } r u u r r u u u u r r r r u u < r o.l r u u u u u u u r r u u u < u o.u r r r r r u u u u r u r . o.Z r r u u u u u u u u r u r 6 < o.m r r r 6 # ",
"r l o.l l l l l r # o.Z l l l l l l l l l l u r # m } l l l l l l l l l l l l l l l < r o.m l l l l l l l l l l l l l < u o.m l l l l l l l l l l l r . o.R l l l l l l l l l l l l l r < o.Z l l l r # ",
"r l o.o.o.o.o.o.m # } o.o.o.o.o.o.o.o.o.o.o.R r # m o.o.o.o.o.o.o.o.o.o.o.o.o.o.o.o.u r o.o.o.o.o.o.o.o.o.o.o.o.o.o.o.6 u o.o.o.o.o.o.o.o.o.o.o.o.o.Z . } o.o.o.o.o.o.o.o.o.o.o.o.o.o.m < } o.o.o.o.m # ",
"r < r r r r r r < # r r r r r r r r r r r r 6 < # < r r r r r r r r r r r r r r r r < # r r r r r r r r r r r r r r r # < r r r r r r r r r r r r r 6 # 6 r r r r r r r r r r r r r r < # 6 r r r r < # ",
"r 6 u < # < u < < < < < < < < # # r 6 < < < < < < < < < < < < < < < # 6 r < < < < < < < < < < < < < < # r r < < < < < < < < < < < < # < r < < < < < < < < < < < < < < < # # u 6 < < < < < < < < < < < # ",
"r l o.r < 6 o.l u u u u u u u 6 < } Z r r r r u u u u r r u u u u r # R ^ r u u u u u u u u u u u u r . ^ R u u u u u u u u r r r r # u o.u u u u u u u u u u u u u r u 6 < o.m u u u u u u u u r u 6 # ",
"r l o.r < 6 #.l u u u u r r u 6 < } Z u r r u u u u u u r u u u u r # R ^ r u u u u u u u u u u u u r . ^ R u u u u u u u u u u u u # u o.u u u u u u u u u u u u u r u 6 < o.m u u u u u u u u r u 6 # ",
"r l o.r < 6 #.l u u u r u u u 6 < } Z u u u u u u u u u u u u u r 6 m Z m r u u r r u u u u u u r r r . ^ R r u u u u u u u u u u u # u o.u u u u u u u r u u u u u u u 6 < o.m r r u u u u u u r u 6 # ",
"r l o.u < 6 o.m l l l l l l l r < } Z l l l l l l l l l l l l l 6 < o.m l l l l u u l l l l l l l u u . ^ ^ u u l l l l l l l l l l < u o.l l l l l l l l u l l l l l l 6 < o.Z u u l l l l l l u l 6 # ",
"r l o.o.u r #.o.o.o.o.o.o.o.o.Z < } o.o.o.o.o.o.o.o.o.o.o.o.o.o.m < o.o.o.o.o.o.o.o.o.o.o.o.o.o.o.o.^ . } o.o.o.o.o.o.o.o.o.o.o.o.o.r u o.o.o.o.o.o.o.o.o.o.o.o.o.o.o.o.m < o.o.o.o.o.o.o.o.o.o.o.o.Z # ",
"r < r r < < r r r r r r r r r 6 # r r r r r r r r r r r r r r r < # r r r r r r r r r r r r r r r r r # r r r r r r r r r r r r r r < < r r r r r r r r r r r r r r r r 6 # r r r r r r r r r r r r 6 # ",
"r < r < < < < < < < # 6 r < < < < < < < < < < < # 6 r < < < < < < < < < < < < < < < # < r < < < < < < < < < < < < < < # < r < < < < < < < < < < < < < < < # # r 6 < < < < < < < < < < < # r < < < < # # ",
"r l o.r u u u u u r # Z } u u u u u u u u u u r # m } r u u u u u u u u u u u u u u < r o.l u u u u u u u u u u u u u < u o.u u u u u u u u u u u u u u u 6 < #.m u u u u u u u u u u 6 < o.m r u u 6 # ",
"r l o.r u u u u u u # Z } u u u u u u u u u u u # m } u u u u u u u u u u u u u r u < r o.l u u u u u u u u u u u u u < u o.u u u u u u u u u u u r r u u 6 < o.m u u u u u u u u u u 6 < o.m r r r 6 # ",
"r l o.r u u u u u u # Z } u u u u u u u u u u u # m } r u u u u u u u u u u u u r u < r o.l u u u u u u u u r u u u u 6 r m Z l u r u u u u u u u u u u 6 r l R l u u u u u u u u u u 6 < o.m r r u 6 # ",
"r l o.u u u u u u u # Z } u u u u u u u u u u u # m } u u u u u u u u u u u u u u u < r o.l u u u u u u u u u u u u u u 6 < } Z u u u u u u u u u u u u # m o.u u u u u u u u u u u u 6 < o.Z u u u 6 # ",
"r l o.o.o.o.o.o.#.o.# Z o.#.o.o.o.o.o.o.o.o.o.o.< m o.o.o.o.o.o.o.o.o.o.#.o.#.#.o.o.u r o.o.o.o.#.#.#.#.#.#.o.o.o.o.o.o.Z < } o.o.o.o.o.#.#.o.o.o.o.o.#.< m o.o.o.o.o.o.#.o.#.#.o.o.o.m < o.o.o.o.o.Z # ",
"r 6 u u u u u u u u # 6 u u u u u u u u u u u u # 6 u u u u u u u u u u u u u u u u < < u u u u u u u u u u u u u u u u 6 # r u u u u u u u u u u u u u # 6 u u u u u u u u u u u u u 6 # u u u u u 6 # ",
"r < 6 < # # r < < < < < < # # # < # < 6 < < < < < < # < < # < < # # r < < < < < < # < < < < < < < < < < # < r < < < < < < < < < < < < < < # < 6 < < < < < < < < < < < < # # 6 < < # < < < < < < < < # # ",
"r l o.u < r #.l u u u u u u u u r # Z } u u u u u u u u u u u u 6 < o.m u u u u u u u u u u u u u u u u # l o.u u u u u u u u u u u u u r # m } u u u u u u u u u u u u 6 < o.Z u u u u u u u u u u 6 # ",
"r l o.r < 6 o.l u u u u u u u r r # m } u u u r u u u u u u u u 6 < o.m u u u u u r r u u u r r u u u u # l o.u u u r r u r r u u u u u r # m } u u u u u r r u u u u u 6 < o.m u r r u u u u u r u 6 # ",
"r l o.6 u l R u u u u u r r r r r # m } u r u u u u u u r r r u 6 < o.m r u u u r u u u u u u u u u u u < l o.u u u u u u u u u r r u u r # m } u u u u u u u u u u u u 6 < o.Z r r u u u u u u r r 6 # ",
"r l o.. Z } u u u l l l u u u u u # m } u u u u u l l l u u u u 6 < o.m u u u u u u u u l u l u u u u l < l o.l u u u u u l u u u u u u u # m } u u u u u u u u l u l u 6 < o.Z u u u u l u l u u u 6 # ",
"r l o.. Z o.o.o.o.o.o.o.o.o.o.o.} < m o.o.o.o.o.o.o.o.o.o.o.o.o.l < o.o.o.o.o.o.o.o.o.o.o.o.o.o.o.o.o.o.6 l o.o.o.o.o.o.o.o.o.o.o.o.o.o.} < m o.o.o.o.o.o.o.o.o.o.o.o.o.m < o.o.o.o.o.o.o.o.o.o.o.o.m # ",
"r 6 u # r u u u u u u u u u u u u # 6 u u u u u u u u u u u u u 6 # u u u u u u u u u u u u u u u u u u # 6 u u u u u u u u u u u u u u u # 6 u u u u u u u u u u u u u 6 # u u u u u u u u u u u u 6 # ",
"r < 6 # < < < < < < # < 6 < < < < < < < < < < < < # # 6 < < < < < < < < < < < < < < # # 6 < < < < < < < < < # < < < < < < < # < 6 < < < < < < < < < < < < # # 6 < < < < < < < < < < < < < # < 6 < < # # ",
"r l o.r u u u u u r # Z } r u u u u u u u u u u u < < o.m u u u u u u u u u u u u u < r o.l u u u u u u u u r r u u u u u r # m } u u u u u u u u u u u u 6 # o.m u u r u u u u u r u u r # Z ^ r u 6 # ",
"r l o.r u u u u u r # Z } u r u u u u u u u u u u < < o.m u u u u u r r u u u u r u < r o.l u u u u u u u u u r u u u u u r # m } u r r u u u u u u u u u 6 < o.m u r r r r u u u u u u r # Z } r u 6 # ",
"r l o.r u u r r u r # Z } u u u u r u u u u u u u < < o.m u u u u u u r u u u u r u < r o.l u u u u u u u u u u u u u u u r # m } u r u u u u u u u u u u 6 < o.m u r r r u u u r u r u r # Z } r u 6 # ",
"r l o.u u u u u u u # Z ^ u u u u u u u u u u u u 6 < o.m u u u u u u u u u u u u u < r o.l u u u u u u u u u u u u u u u u # m } u u u u u u u u u u u u 6 < o.m u u u u u u u u u u u u # Z } u u 6 # ",
"r l o.} } } } } } o.} l r o.} } } } } } } } } } o.l < o.o.} } } } } } } } o.} } } o.u r o.o.} } } } } } } } } } } } } } } } < m o.o.} } } } } o.} } } } o.l < o.o.} } } o.o.} } } } } } } # Z o.} } m # ",
"r 6 l l l l l l l l l 6 < l l l l l l l l l l l l 6 # l l l l l l l l l l l l l l l 6 < l l l l l l l l l l l l l l l l l l # r l l l l l l l l l l l l l 6 # l l l l l l l l l l l l l l # r l l l r # ",
"r # < # # # # < < # # # # # # # # # # # < # # # # # # # # # # # # # # < < # # # # # # # # # # # # # # # # # # < # # # # # # # # # # # # # # # # < # # # # # # # # # # # # # # < < # # # # # # # # # # # ",
"r l o.r u r . } R u u u u u u u u u < 6 o.m u u u u u u u u u u u r # R ^ r u u u u u u u u u u u u u u u 6 # o.Z u u u u u u u u u u u u u < < o.m u u u u u u u u u u u r # Z } u u u u u u u u u 6 # ",
"r l o.r u r . ^ R u u u u u u u u u < 6 o.l u u u u u u u u u u u r # R ^ r u r u u u u u u u u u u u u < u R m u u u u u u u u u u u u u u < < o.m u u u u u u u u u u u r # Z ^ u u u u u u u r r 6 # ",
"r l o.r u r . ^ R u u u u u u u u u < 6 o.l u u u u u u u u u u u r # R ^ r r r r u u u u u u u u u u u < l o.u u u u u u u u u u u u u u u < < o.m u u u u u u u u u u u r # Z ^ u u u u u u u r u 6 # ",
"r l o.r r r . ^ R r r r r r r r r r < 6 o.l r r r r r r r r r r r r . R ^ r r r r r r r r r r r r r r u < l o.u r r r r r r r r r r r r r r < < o.m r r r r r r r r r r r r # Z ^ u r r r r r r r r 6 # ",
"r l o.o.o.R . ^ o.o.o.o.o.o.o.o.o.o.u 6 o.o.o.o.o.o.o.o.o.o.o.o.o.} # R o.o.o.o.o.o.o.o.o.o.o.o.o.o.o.o.6 l o.o.o.o.o.o.o.o.o.o.o.o.o.o.o.o.l < o.o.o.o.o.o.o.o.o.o.o.o.o.^ # Z o.o.o.o.o.o.o.o.o.o.m # ",
"r r m m m u . l m m m m m m m m m m 6 < m m m m m m m m m m m m m l # u m m m m m m m m m m m m m m m m < 6 m m m m m m m m m m m m m m m m 6 # m m m m m m m m m m m m m l # u m m m m m m m m m m r # ",
"r # < # # # # # # # # # # < # # # # # # # # # # # # # < # # # # # # # # # # # # # # # # < # # # # # # # # # # # # # # # # # # # < # # # # # # # # # # # # # # # < < # # # # # # # # # # # # # < # # # # ",
"r l o.r u u u u u u u < 6 o.l r u u r u u u u u r < < o.m u u u u u u u u u u u r u < r o.l u u u u u u r u u u u r r r r r # m } u r u r r r r u u u u u u r . R ^ r u u u u u u u u r r # Z } r u 6 # ",
"r l o.r u u u u r u u < 6 o.l u u u u r u u u u u < < o.m u u u u r r r u u u r r u < r o.l u u u u u u u u u u u u u u u r # m } u u r u u u u u u u u u u r . R ^ r r r u u u u r u r r # Z } r u 6 # ",
"r l o.r u u u u u u u < 6 o.l u u u u r u u u u r < < o.m u u u u r r r u u u u r u < r o.l u u u u u u u u u u u u u u u r # m } u u r u u u u u u u u u u r . R ^ r r u u u u u r u u r # Z } r u 6 # ",
"r l o.u u u u u u u u < 6 o.m u u u u u u u u u r 6 < o.m u u u u u u u u u u u u u < r o.l u u u u u u u u u u u u u u u u # m } u u u u u u u u u u u u u u . R ^ u u u u u u u u u u u # Z } u u 6 # ",
"r l o.} } } } } } } } u 6 o.} } } } } } } } R r < l ^ o.} } } } } } } } } } } } ^ < m } o.} } } } } } } } } } } } } } } } ^ < m o.} } } } } } } } } } } } } ^ . R o.} } } } } } } } } } ^ # Z o.} } m # ",
"r r m m m m m m m m m 6 < m m m m m m m m m l 6 # r m m m m m m m m m m m m m m l # u m m m m m m m m m m m m m m m m m m m # r m m m m m m m m m m m m m m m . u m m m m m m m m m m m m # u m m m u # ",
"r # < # # # # < < # # # # # # # # # # # < # # # # # # # # # # # # # # # < # # # # # # # # # # # # # # # # # < # # # # # # # # # # # # # # # # # < # # # # # # # # # # # # # # < < # # # # # # # # # # # ",
"r l } r r r . ^ R r r r r r r r r r < 6 } l r r r r r r r r r r r r # Z R r r r r r r r r r r r r r r r # u } r r r r r r r r r r r r r r r < < o.l r r r r r r r r r r r r # Z ^ r r r r r r r r r 6 # ",
"r l o.r u r . ^ R r u u u u u u u u < 6 o.l u u u u u u u u r u u r # R ^ r u u u u u u u u u u u u u u < l o.u u u u u u u u u u u u u u u < < o.m u u u u u u u u r r u r # Z ^ u u u u u u u r r 6 # ",
"r l o.r u r . ^ R r u u u u u u u u < 6 o.l u u u u u u u u r u u r # R ^ r u u u u u u u u u u u u u u # l o.u u u u u u u u u u u u u u u < < o.m u u u u u u u u u u u r # Z ^ u u u u u r r r r 6 # ",
"r l o.r r r . ^ R r r r r r r r r r < 6 o.l r r r r r r r r r r r r # R ^ r r r r r r r r r r r r r r u # l o.r r r r r r r r r r r r r r r < < o.m r r r r r r r r r r r r # Z ^ u r r r r r r r r 6 # ",
"r l o.} } R . ^ o.} } } } } } } } } u 6 o.} } } } } } } } } } } } ^ # R o.} } } } } } } } } } } } } } } < l o.} } } } } } } } } } } } } } } u < o.} } } } } } } } } } } } ^ # Z o.} } } } } } } } } m # ",
"r r Z Z Z l . m Z Z Z Z Z Z Z Z Z Z r < Z Z Z Z Z Z Z Z Z Z Z Z Z m # l Z Z Z Z Z Z Z Z Z Z Z Z Z Z Z Z < r Z Z Z Z Z Z Z Z Z Z Z Z Z Z Z Z r < Z Z Z Z Z Z Z Z Z Z Z Z Z m # u Z Z Z Z Z Z Z Z Z Z u # ",
"r # # # # # # # # # # # # # # # # # # # # # # # # # # # # # # # # # # # # # # # # # # # # # # # # # # # # # # # # # # # # # # # # # # # # # # # # # # # # # # # # # # # # # # # # # # # # # # # # # # # ",
"r l o.r r r r r r r r r r # R R r r r r r r r r r r r . R ^ r r r r r r r r r r r r r 6 # ^ Z r r r r r r r r r r r r r 6 < } Z r r r r r r r r r r r r r 6 < o.m r r r r r r r r r r r r # Z ^ r r 6 # ",
"r l o.r r r u u u u u r r # ^ R r r r r r r u u u u r . R ^ r u u u r r u u u u r u u 6 # } R r r r r u r u u u u u r u 6 < } Z r r u u r u u u u u r r u 6 < o.m r r r r r u u u u u u r # Z } r u 6 # ",
"r l o.r u r u u u u u r r # ^ R r r r r r u u u u u r . R ^ r u r r r r u u u u u u u 6 # } R r r r r u u u u u u u u r 6 < } Z r r u u u u u u r r r r u 6 < o.m r r u r r r u u u u u r # Z } r u 6 # ",
"r l o.r r r r r r r r r r # ^ R r r r r r r u u r r r . R ^ r r r r r r r r r r r r r 6 # } R r r r r r r r r r r r r r 6 # } Z r r r r r r r r r r r r r 6 < o.m r r r r r r r r r r r r # Z } r r 6 # ",
"r l o.^ ^ ^ ^ ^ ^ ^ u 6 6 ^ o.} ^ ^ ^ ^ ^ ^ ^ ^ ^ ^ R . R o.^ ^ ^ ^ ^ ^ ^ ^ ^ ^ ^ ^ ^ Z # ^ } ^ ^ ^ ^ ^ ^ ^ ^ ^ ^ ^ ^ 6 u ^ o.} ^ ^ ^ ^ ^ ^ ^ ^ ^ ^ ^ ^ ^ l < o.} ^ ^ ^ ^ ^ ^ ^ ^ ^ ^ ^ ^ # Z o.^ ^ l . ",
"r r R R R R R R R Z 6 < < R R R R R R R Z R R R R R Z . m R R R R R R R R R R R R R R m # m R R R R R R R R R R R R R < r R R R R R R R R R R R R R R R R u # R R R R R R R R R R R R R Z # l R R R l # ",
"r # # # # # # # # . # # # . . . # # # # . # # . . . . # # . . . # # . . # # . . . # # # # . . . . . . # # # # # . . . # # . . . . . . # # # . # # # . . . # # . . # # . . . . # # . . . . # # . . . # # ",
"r l } r r r . R Z r r r r r r r r r r 6 # R R r r r r r r r r r r r r < r } u r r r r r r r r r r r r r # u } r r r r r r r r r r r r r r r < < } l r r r r r r r r r r r r # Z R r r r r r r r r r 6 # ",
"r l o.r u r . ^ R r u u u u u u u r r r # ^ ^ r u u u r u u u u r r r < r o.l r u u u u u r r r u r u u # l o.u u u u u u u u u u r u u u u < < o.l u u u u u u u u u u u r # Z ^ u r r u u u u u u 6 # ",
"r l o.l u r < } ^ l l l l l l l l l u r < ^ ^ l l l l l l l l l l l l < r o.m l l l l l l l l l l l l l < l o.l l l l l l l l l l l l l l l 6 < o.m l l l l l l l l l l l u # Z } l l l l l l l l l r # ",
"r l o.o.u 6 o.o.o.o.o.o.o.o.o.o.o.o.u 6 o.o.o.o.o.o.o.o.o.o.o.o.o.o.o.r r o.o.o.o.o.o.o.o.o.o.o.o.o.o.o.6 l o.o.o.o.o.o.o.o.o.o.o.o.o.o.o.o.l < o.o.o.o.o.o.o.o.o.o.o.o.o.} # Z o.o.o.o.o.o.o.o.o.o.Z . ",
"r < r r < < r r r r r r r r r r r r < # r r r r r r r r r r r r r r r < < r r r r r r r r r r r r r r r # < r r r r r r r r r r r r r r r r < # r r r r r r r r r r r r r r # 6 r r r r r r r r r r 6 # ",
"r < r < < < < < < < < # # r < < < < < < < < < < < < < # 6 6 < < < < < < < < < < < < < < # r 6 < < < < < < < < < < < < < < < # 6 r < < < < < < < < < < < < < < # 6 r < < < < < < < < < # # r 6 < < < # # ",
"r l o.r u u u u u u u < 6 o.l u u u u u u u u u u u r # R ^ u u u u u u u u u u u u u 6 # } R u u u u u u u u u u u u u u r # m } u u u u u u u u u u u u u r . R ^ r u u u u u r r u 6 < o.m u u u 6 # ",
"r l o.r u u u u u u u < 6 o.l u u u u u u u r u u r u r 6 u } u u r u u u u u u u r u 6 # ^ R u u u u u u u u u u u u u 6 < ^ Z l u r u u u u u u u u u u u r . R ^ r u u u u u r r u 6 < o.m u u u 6 # ",
"r l o.u u u r r u u u < 6 o.l u u u u u u u u u u u u u < u #.u u u u u u u u u u u u r # ^ R r u u u u u u u r u u r u 6 < } Z u u u u u u r u u u u u r r r . R ^ r u u u u u u u u r 6 m Z m r u 6 # ",
"r l o.l u u u u u u u 6 6 o.m u u u u u u u l l l l u u 6 u } l l l l l l u u u l l l r # ^ R u l l l l u u u u u u u r r 6 } Z u l l l l u u u l l l l u u u . R ^ u u u u u u l l l l u # Z } u u 6 # ",
"r l o.o.o.o.o.o.o.o.o.u 6 o.o.o.o.o.o.o.o.o.o.o.o.o.o.o.o.R # } o.o.o.o.o.o.o.o.o.o.o.R # } o.o.o.o.o.o.o.o.o.o.o.o.o.6 u o.o.o.o.o.o.o.o.o.o.o.o.o.o.o.o.o.} . R o.o.o.o.o.o.o.o.o.o.o.} # Z o.o.o.m # ",
"r 6 u u u u u u u u u < < u u u u u u u u u u u u u u u u r # u u u u u u u u u u u u r # r u u u u u u u u u u u u u < < u u u u u u u u u u u u u u u u u u . r u u u u u u u u u u u u # 6 u u u 6 # ",
"r < 6 < # # # 6 6 < < < < < < # < < # # # # # # 6 < # # # < < < # # # # # # # < 6 < # # # # < < < < # < # < 6 # < < < < # # # # < < # # # 6 < # # 6 6 # < < < # # < # # # # < # # 6 < # < < < # # # # # ",
"r l o.r r r . } R r u u r r r r u u r r r u 6 # o.Z r r r u r r r r r r r r # l o.u r r r r u u r r r r # l o.r u u u u r r r r u u # . # } Z r . R ^ r r r r r u u r r r r u < r o.l r u r u r . r 6 # ",
"r l o.} } } } r l } } } } } } } } } } } } r u } o.} } } } } } } } } } } } } } m r } } } } } } } } } } } < l o.} } } } } } } } } R < Z } } o.o.^ . R o.} } } } } } } } } } } } r r o.} } } } } } ^ } m . ",
"r r Z Z Z Z Z < r Z Z Z Z Z Z Z Z Z Z Z Z < 6 Z Z Z Z Z Z Z Z Z Z Z Z Z Z Z Z r < m Z Z Z Z Z Z Z Z Z Z < r Z Z Z Z Z Z Z m Z Z l # l Z Z Z Z m # l Z Z Z Z Z Z Z Z Z Z Z Z Z 6 < m Z Z Z Z Z Z Z Z u # ",
"r # # . # # # # . . . . . . . . . . . . . # # # # # # # # # # # . . . # . . # # # . . . . # . . # # # . # # # # # . # # . # . . . # # . # # # # # . . . . . . . . # # # . # # # # # . # # # # # # . # # "
};
